<svg xmlns="http://www.w3.org/2000/svg" width="480" height="182" viewBox="0 0 480 182" font-family="ui-sans-serif, system-ui, -apple-system, Segoe UI, sans-serif">
<rect x="0.5" y="0.5" width="479" height="181" rx="12" fill="#ffffff" stroke="#e5e7eb"/>
<line x1="0" y1="44" x2="480" y2="44" stroke="#eef1f4"/>
<rect x="18.5" y="17" width="11" height="10" rx="2.5" stroke="#2563eb" stroke-width="1.4" fill="none" stroke-linecap="round" stroke-linejoin="round"/><path d="M21 20.5 L27 20.5 M21 23.5 L25 23.5" stroke="#2563eb" stroke-width="1.4" fill="none" stroke-linecap="round" stroke-linejoin="round"/>
<text x="40" y="27" font-size="14" fill="#111827" font-weight="500" font-family="ui-monospace, SFMono-Regular, Menlo, Consolas, monospace">User</text>
<text x="464" y="26" font-size="11" fill="#6b7280" text-anchor="end">4 members</text>
<line x1="27" y1="44" x2="27" y2="76" stroke="#eef1f4"/>
<path d="M42 55.5 L40.6 64.5 M46 55.5 L44.6 64.5 M39.6 59 L48.6 59 M39.2 62 L48.2 62" stroke="#0d9488" stroke-width="1.4" fill="none" stroke-linecap="round" stroke-linejoin="round"/>
<text x="58" y="64" font-size="13" fill="#111827" font-family="ui-monospace, SFMono-Regular, Menlo, Consolas, monospace">id</text>
<text x="464" y="64" font-size="12" fill="#6b7280" text-anchor="end" font-family="ui-monospace, SFMono-Regular, Menlo, Consolas, monospace">number</text>
<line x1="16" y1="76" x2="464" y2="76" stroke="#eef1f4"/>
<line x1="27" y1="76" x2="27" y2="108" stroke="#eef1f4"/>
<path d="M40 88.5 l2.6 0 l-1 3.4 l-1.6 0 z" fill="#0d9488"/><path d="M44.5 88.5 l2.6 0 l-1 3.4 l-1.6 0 z" fill="#0d9488"/>
<text x="58" y="96" font-size="13" fill="#111827" font-family="ui-monospace, SFMono-Regular, Menlo, Consolas, monospace">name</text>
<text x="464" y="96" font-size="12" fill="#6b7280" text-anchor="end" font-family="ui-monospace, SFMono-Regular, Menlo, Consolas, monospace">string</text>
<line x1="16" y1="108" x2="464" y2="108" stroke="#eef1f4"/>
<line x1="27" y1="108" x2="27" y2="140" stroke="#eef1f4"/>
<rect x="38.5" y="119" width="11" height="10" rx="2.5" stroke="#0d9488" stroke-width="1.4" fill="none" stroke-linecap="round" stroke-linejoin="round"/><path d="M41 122.5 L47 122.5 M41 125.5 L45 125.5" stroke="#0d9488" stroke-width="1.4" fill="none" stroke-linecap="round" stroke-linejoin="round"/>
<text x="58" y="128" font-size="13" fill="#111827" font-family="ui-monospace, SFMono-Regular, Menlo, Consolas, monospace">profile</text>
<text x="464" y="128" font-size="12" fill="#6b7280" text-anchor="end" font-family="ui-monospace, SFMono-Regular, Menlo, Consolas, monospace">Profile</text>
<line x1="16" y1="140" x2="464" y2="140" stroke="#eef1f4"/>
<line x1="27" y1="140" x2="27" y2="172" stroke="#eef1f4"/>
<circle cx="40" cy="153" r="1.1" fill="#0d9488"/><path d="M42.5 153 L48.5 153" stroke="#0d9488" stroke-width="1.4" fill="none" stroke-linecap="round" stroke-linejoin="round"/><circle cx="40" cy="156.5" r="1.1" fill="#0d9488"/><path d="M42.5 156.5 L48.5 156.5" stroke="#0d9488" stroke-width="1.4" fill="none" stroke-linecap="round" stroke-linejoin="round"/><circle cx="40" cy="160" r="1.1" fill="#0d9488"/><path d="M42.5 160 L46.5 160" stroke="#0d9488" stroke-width="1.4" fill="none" stroke-linecap="round" stroke-linejoin="round"/>
<text x="58" y="160" font-size="13" fill="#111827" font-family="ui-monospace, SFMono-Regular, Menlo, Consolas, monospace">status</text>
<text x="464" y="160" font-size="12" fill="#6b7280" text-anchor="end" font-family="ui-monospace, SFMono-Regular, Menlo, Consolas, monospace">Status</text>
</svg>