<svg xmlns="http://www.w3.org/2000/svg" width="480" height="438" viewBox="0 0 480 438" font-family="ui-sans-serif, system-ui, -apple-system, Segoe UI, sans-serif">
<rect x="0.5" y="0.5" width="479" height="437" rx="12" fill="#ffffff" stroke="#e5e7eb"/>
<line x1="0" y1="44" x2="480" y2="44" stroke="#eef1f4"/>
<rect x="18.5" y="17" width="11" height="10" rx="2.5" stroke="#2563eb" stroke-width="1.4" fill="none" stroke-linecap="round" stroke-linejoin="round"/><path d="M21 20.5 L27 20.5 M21 23.5 L25 23.5" stroke="#2563eb" stroke-width="1.4" fill="none" stroke-linecap="round" stroke-linejoin="round"/>
<text x="40" y="27" font-size="14" fill="#111827" font-weight="500" font-family="ui-monospace, SFMono-Regular, Menlo, Consolas, monospace">User</text>
<text x="464" y="26" font-size="11" fill="#6b7280" text-anchor="end">6 members</text>
<line x1="27" y1="44" x2="27" y2="76" stroke="#eef1f4"/>
<path d="M40 56.5 l2.6 0 l-1 3.4 l-1.6 0 z" fill="#0d9488"/><path d="M44.5 56.5 l2.6 0 l-1 3.4 l-1.6 0 z" fill="#0d9488"/>
<text x="58" y="64" font-size="13" fill="#111827" font-family="ui-monospace, SFMono-Regular, Menlo, Consolas, monospace">id</text>
<text x="464" y="64" font-size="12" fill="#6b7280" text-anchor="end" font-family="ui-monospace, SFMono-Regular, Menlo, Consolas, monospace">string</text>
<line x1="16" y1="76" x2="464" y2="76" stroke="#eef1f4"/>
<line x1="27" y1="76" x2="27" y2="108" stroke="#eef1f4"/>
<path d="M40 88.5 l2.6 0 l-1 3.4 l-1.6 0 z" fill="#0d9488"/><path d="M44.5 88.5 l2.6 0 l-1 3.4 l-1.6 0 z" fill="#0d9488"/>
<text x="58" y="96" font-size="13" fill="#111827" font-family="ui-monospace, SFMono-Regular, Menlo, Consolas, monospace">name</text>
<text x="464" y="96" font-size="12" fill="#6b7280" text-anchor="end" font-family="ui-monospace, SFMono-Regular, Menlo, Consolas, monospace">string</text>
<line x1="16" y1="108" x2="464" y2="108" stroke="#eef1f4"/>
<line x1="27" y1="108" x2="27" y2="140" stroke="#eef1f4"/>
<path d="M42 119.5 L40.6 128.5 M46 119.5 L44.6 128.5 M39.6 123 L48.6 123 M39.2 126 L48.2 126" stroke="#0d9488" stroke-width="1.4" fill="none" stroke-linecap="round" stroke-linejoin="round"/>
<text x="58" y="128" font-size="13" fill="#111827" font-family="ui-monospace, SFMono-Regular, Menlo, Consolas, monospace">age</text>
<text x="87.2" y="128" font-size="13" fill="#6b7280" font-family="ui-monospace, SFMono-Regular, Menlo, Consolas, monospace">?</text>
<text x="464" y="128" font-size="12" fill="#6b7280" text-anchor="end" font-family="ui-monospace, SFMono-Regular, Menlo, Consolas, monospace">number</text>
<line x1="16" y1="140" x2="464" y2="140" stroke="#eef1f4"/>
<line x1="27" y1="140" x2="27" y2="172" stroke="#eef1f4"/>
<rect x="39" y="152" width="10" height="9" rx="1.5" stroke="#0d9488" stroke-width="1.4" fill="none" stroke-linecap="round" stroke-linejoin="round"/><path d="M39 154.8 L49 154.8 M41.5 151 L41.5 153 M46.5 151 L46.5 153" stroke="#0d9488" stroke-width="1.4" fill="none" stroke-linecap="round" stroke-linejoin="round"/>
<text x="58" y="160" font-size="13" fill="#111827" font-family="ui-monospace, SFMono-Regular, Menlo, Consolas, monospace">createdAt</text>
<rect x="131.60000000000002" y="154.5" width="8" height="6" rx="1.3" fill="none" stroke="#6b7280" stroke-width="1.2"/><path d="M133.3 154.5 v-1.6 a2.3 2.3 0 0 1 4.6 0 v1.6" fill="none" stroke="#6b7280" stroke-width="1.2"/>
<text x="464" y="160" font-size="12" fill="#6b7280" text-anchor="end" font-family="ui-monospace, SFMono-Regular, Menlo, Consolas, monospace">Date</text>
<line x1="16" y1="172" x2="464" y2="172" stroke="#eef1f4"/>
<line x1="27" y1="172" x2="27" y2="204" stroke="#eef1f4"/>
<path d="M41.5 183 L39.5 183 L39.5 193 L41.5 193" stroke="#0d9488" stroke-width="1.4" fill="none" stroke-linecap="round" stroke-linejoin="round"/><path d="M46.5 183 L48.5 183 L48.5 193 L46.5 193" stroke="#0d9488" stroke-width="1.4" fill="none" stroke-linecap="round" stroke-linejoin="round"/><circle cx="42.9" cy="188" r="0.9" fill="#0d9488"/><circle cx="45.1" cy="188" r="0.9" fill="#0d9488"/>
<text x="58" y="192" font-size="13" fill="#111827" font-family="ui-monospace, SFMono-Regular, Menlo, Consolas, monospace">roles</text>
<text x="464" y="192" font-size="12" fill="#6b7280" text-anchor="end" font-family="ui-monospace, SFMono-Regular, Menlo, Consolas, monospace">Role[]</text>
<line x1="47" y1="204" x2="47" y2="236" stroke="#eef1f4"/>
<rect x="58" y="216.5" width="8" height="7" rx="2" stroke="#d97706" stroke-width="1.4" fill="none" stroke-linecap="round" stroke-linejoin="round"/><rect x="62" y="216.5" width="8" height="7" rx="2" stroke="#d97706" stroke-width="1.4" fill="none" stroke-linecap="round" stroke-linejoin="round"/>
<text x="78" y="224" font-size="13" fill="#6b7280" font-family="ui-monospace, SFMono-Regular, Menlo, Consolas, monospace">Role =</text>
<line x1="47" y1="236" x2="47" y2="268" stroke="#eef1f4"/>
<path d="M60 248.5 l2.6 0 l-1 3.4 l-1.6 0 z" fill="#d97706"/><path d="M64.5 248.5 l2.6 0 l-1 3.4 l-1.6 0 z" fill="#d97706"/>
<text x="78" y="256" font-size="13" fill="#6b7280" font-family="ui-monospace, SFMono-Regular, Menlo, Consolas, monospace">&quot;admin&quot;</text>
<line x1="47" y1="268" x2="47" y2="300" stroke="#eef1f4"/>
<path d="M60 280.5 l2.6 0 l-1 3.4 l-1.6 0 z" fill="#d97706"/><path d="M64.5 280.5 l2.6 0 l-1 3.4 l-1.6 0 z" fill="#d97706"/>
<text x="78" y="288" font-size="13" fill="#6b7280" font-family="ui-monospace, SFMono-Regular, Menlo, Consolas, monospace">&quot;editor&quot;</text>
<line x1="47" y1="300" x2="47" y2="332" stroke="#eef1f4"/>
<path d="M60 312.5 l2.6 0 l-1 3.4 l-1.6 0 z" fill="#d97706"/><path d="M64.5 312.5 l2.6 0 l-1 3.4 l-1.6 0 z" fill="#d97706"/>
<text x="78" y="320" font-size="13" fill="#6b7280" font-family="ui-monospace, SFMono-Regular, Menlo, Consolas, monospace">&quot;viewer&quot;</text>
<line x1="16" y1="332" x2="464" y2="332" stroke="#eef1f4"/>
<line x1="27" y1="332" x2="27" y2="364" stroke="#eef1f4"/>
<path d="M40 344 l3 4 l-3 4" stroke="#0d9488" stroke-width="1.4" fill="none" stroke-linecap="round" stroke-linejoin="round"/><path d="M44.5 344 l3 4 l-3 4" stroke="#0d9488" stroke-width="1.4" fill="none" stroke-linecap="round" stroke-linejoin="round"/>
<text x="58" y="352" font-size="13" fill="#111827" font-family="ui-monospace, SFMono-Regular, Menlo, Consolas, monospace">update</text>
<text x="464" y="352" font-size="12" fill="#6b7280" text-anchor="end" font-family="ui-monospace, SFMono-Regular, Menlo, Consolas, monospace">(…) =&gt; Promise&lt;User&gt;</text>
<line x1="47" y1="364" x2="47" y2="396" stroke="#eef1f4"/>
<rect x="58.5" y="375.5" width="11" height="9" rx="2" stroke="#d97706" stroke-width="1.4" fill="none" stroke-linecap="round" stroke-linejoin="round"/><path d="M62 378 l-2 2 l2 2 M66 378 l2 2 l-2 2" stroke="#d97706" stroke-width="1.4" fill="none" stroke-linecap="round" stroke-linejoin="round"/>
<text x="78" y="384" font-size="13" fill="#111827" font-family="ui-monospace, SFMono-Regular, Menlo, Consolas, monospace">patch</text>
<text x="464" y="384" font-size="12" fill="#6b7280" text-anchor="end" font-family="ui-monospace, SFMono-Regular, Menlo, Consolas, monospace">Partial&lt;User&gt;</text>
<line x1="47" y1="396" x2="47" y2="428" stroke="#eef1f4"/>
<path d="M68.2 410.4 A5 5 0 1 0 69 414" stroke="#d97706" stroke-width="1.4" fill="none" stroke-linecap="round" stroke-linejoin="round"/><path d="M68.8 407.6 L68.2 410.8 L65.2 410" stroke="#d97706" stroke-width="1.4" fill="none" stroke-linecap="round" stroke-linejoin="round"/>
<text x="78" y="416" font-size="13" fill="#6b7280" font-family="ui-monospace, SFMono-Regular, Menlo, Consolas, monospace">↩ 戻り値</text>
<text x="464" y="416" font-size="12" fill="#6b7280" text-anchor="end" font-family="ui-monospace, SFMono-Regular, Menlo, Consolas, monospace">Promise&lt;User&gt;</text>
</svg>